<svg width="50" height="51" viewBox="0 0 50 51" fill="none" xmlns="http://www.w3.org/2000/svg">
<path fill-rule="evenodd" clip-rule="evenodd" d="M27.0776 34.4811H25.5141L25.4905 34.6775L29.0237 38.2911L35.2212 50.5H20.1185L20.1185 33.3197L19.0129 32.2141L18.8573 32.3363L18.8005 37.3898L14.5498 50.4051L3.87055 39.7259L16.0189 27.5776V26.0141L15.8225 25.9905L12.209 29.5238L1.60314e-06 35.7212L0 20.6185L17.1803 20.6185L18.2859 19.5129L18.1637 19.3574L13.1101 19.3006L0.0948311 15.0498L10.7741 4.37063L22.9224 16.5189H24.4859L24.5095 16.3225L20.9763 12.7089L14.7788 0.500003L29.8815 0.5L29.8815 17.6803L30.9871 18.786L31.1427 18.6637L31.1995 13.6102L35.4502 0.594922L46.1295 11.2741L33.9811 23.4225V24.9859L34.1775 25.0095L37.791 21.4762L50 15.2788V30.3815L32.8197 30.3815L31.7141 31.4871L31.8363 31.6426L36.8899 31.6994L49.9052 35.9502L39.2259 46.6294L27.0776 34.4811ZM25.2971 29.1951C27.1738 29.1951 28.6952 27.6737 28.6952 25.797C28.6952 23.9203 27.1738 22.3989 25.2971 22.3989C23.4203 22.3989 21.8989 23.9203 21.8989 25.797C21.8989 27.6737 23.4203 29.1951 25.2971 29.1951Z" fill="#9E77ED"/>
</svg>
